# xmcd
#
# Track frame offsets:
#	150
#	15407
#	31864
#	53721
#	72626
#	86731
#	105636
#	125261
#	142006
#	161271
#	179792
#
# Disc length: 2678 seconds
#
# Revision: 0
# Processed by: cddbd v1.5.2PL0 Copyright (c) Steve Scherf et al.
# Submitted via: audiograbber 1.83.01
#
DISCID=920a740b
DTITLE=Mike West - Berührungen
DYEAR=2013
DGENRE=Country
TTITLE0=Good Night My Love
TTITLE1=Liebe Lebt
TTITLE2=Ich Liebe Dich 
TTITLE3=Hörst Du Mich
TTITLE4=Ich Kenne Einen Weg
TTITLE5=Wenn Du Mich Lieben Würdest
TTITLE6=Meine Liebe Zu Dir
TTITLE7=Es Ist Nicht Wichtig Für Mich
TTITLE8=Wenn Es Liebe Ist 
TTITLE9=Sie Tut Gut
TTITLE10=Ich Kann In Deine Seele Sehen
EXTD=
EXTT0=
EXTT1=
EXTT2=
EXTT3=
EXTT4=
EXTT5=
EXTT6=
EXTT7=
EXTT8=
EXTT9=
EXTT10=
PLAYORDER=
